# xmcd
#
# Track frame offsets: 
#        150
#        22251
#        47343
#        63647
#        84662
#        105295
#        125395
#        145514
#        168383
#        193554
#        211497
#        228163
#        250360
#        275195
#        291532
#
# Disc length: 4166 seconds
#
# Revision: 1
# Processed by: cddbd v1.5.2PL0 Copyright (c) Steve Scherf et al.
# Submitted via: ExactAudioCopyFreeDBPlugin 1.0
#
DISCID=de10440f
DTITLE=Anderson Freire - Anderson Freire e Amigos
DYEAR=1900
DGENRE=Gospel
TTITLE0=Anderson Freire e Wilian Nascimento - Promessa
TTITLE1=Anderson Freire e Gisele Nascimento - Faz de Novo
TTITLE2=Anderson Freire e Fernanda Brum - Avenida Santidade
TTITLE3=Anderson Freire e Léo Mendonça - O Retorno do Rei
TTITLE4=Anderson Freire e Marina de Oliveira - Coração Valente
TTITLE5=Anderson Freire e Aline Barros - Primeira Essência - Jardim Pa
TTITLE5=rticular
TTITLE6=Anderson Freire e Bruna Karla - Identidade
TTITLE7=Anderson Freire e Arianne - Aliança de Sangue
TTITLE8=Anderson Freire e Ariely Bonatti - Um Novo Endereço
TTITLE9=Anderson Freire e Banda Giom - Conflitos
TTITLE10=Anderson Freire e Bruna Karla - Te Amo
TTITLE11=Promessa (Playback)
TTITLE12=Faz de Novo (Playback)
TTITLE13=Avenida Santidade (Playback)
TTITLE14=O Retorno do Rei (Playback)
EXTD=
EXTT0=
EXTT1=
EXTT2=
EXTT3=
EXTT4=
EXTT5=
EXTT6=
EXTT7=
EXTT8=
EXTT9=
EXTT10=
EXTT11=
EXTT12=
EXTT13=
EXTT14=
PLAYORDER=
